mtllib materials.mtl
v -0.2929168 0.1945834 -0.2145835
v -0.2929168 0.2745833 -0.2145835
v -0.2929168 0.2745833 -0.1345835
v -0.2929168 0.1945834 -0.1345835
v 0.3170834 0.1945834 -0.2145833
v 0.3170834 0.1945834 -0.1345833
v 0.3170834 0.2745833 -0.1345833
v 0.3170834 0.2745833 -0.2145833
v 0.2370833 0.1945834 0.2054166
v 0.2370833 0.2745833 0.2054166
v 0.3170833 0.2745833 0.2054166
v 0.3170833 0.1945834 0.2054166
v 0.2370833 0.1945834 -0.2145833
v 0.3170833 0.1945834 -0.2145833
v 0.3170833 0.2745833 -0.2145833
v 0.2370833 0.2745833 -0.2145833
v -0.3229167 0.1945832 0.2154166
v -0.3229167 0.2745831 0.2154166
v 0.3170833 0.2745831 0.2154166
v 0.3170833 0.1945832 0.2154166
v -0.3229167 0.1945832 0.1354166
v 0.3170833 0.1945832 0.1354166
v 0.3170833 0.2745831 0.1354166
v -0.3229167 0.2745831 0.1354166
v 0.2370833 -0.2654169 0.2154166
v 0.2370833 0.2745831 0.2154166
v 0.3170833 0.2745831 0.2154166
v 0.3170833 -0.2654169 0.2154166
v 0.2370833 -0.2654169 0.1354166
v 0.3170833 -0.2654169 0.1354166
v 0.3170833 0.2745831 0.1354166
v 0.2370833 0.2745831 0.1354166
v -0.3229167 0.1945832 0.2154166
v -0.3229167 0.2745831 0.2154166
v -0.2429167 0.2745831 0.2154166
v -0.2429167 0.1945832 0.2154166
v -0.3229166 0.1945832 -0.2145833
v -0.2429166 0.1945832 -0.2145833
v -0.2429166 0.2745831 -0.2145833
v -0.3229166 0.2745831 -0.2145834
v 0.2370833 -0.2754169 -0.1345833
v 0.2370833 0.2745831 -0.1345833
v 0.3170833 0.2745831 -0.1345833
v 0.3170833 -0.2754169 -0.1345833
v 0.2370833 -0.2754169 -0.2145833
v 0.3170833 -0.2754169 -0.2145833
v 0.3170833 0.2745831 -0.2145833
v 0.2370833 0.2745831 -0.2145833
v 0.2370832 -0.2754167 0.2154166
v 0.2370832 -0.1954168 0.2154166
v 0.3170832 -0.1954168 0.2154166
v 0.3170832 -0.2754167 0.2154166
v 0.2370833 -0.2754167 -0.2145833
v 0.3170833 -0.2754167 -0.2145833
v 0.3170833 -0.1954168 -0.2145833
v 0.2370833 -0.1954168 -0.2145834
v 0.3170833 -0.2754166 -0.2145834
v 0.3170833 -0.1954167 -0.2145834
v -0.2829167 -0.1954167 -0.2145835
v -0.2829167 -0.2754166 -0.2145835
v 0.3170833 -0.2754166 -0.1345834
v -0.2829167 -0.2754166 -0.1345835
v -0.2829167 -0.1954167 -0.1345835
v 0.3170833 -0.1954167 -0.1345834
v -0.2429167 -0.2754169 -0.2145833
v -0.2429167 0.2745831 -0.2145833
v -0.3229167 0.2745831 -0.2145833
v -0.3229167 -0.2754169 -0.2145833
v -0.2429167 -0.2754169 -0.1345833
v -0.3229167 -0.2754169 -0.1345833
v -0.3229167 0.2745831 -0.1345834
v -0.2429167 0.2745831 -0.1345834
v -0.2429167 -0.2754166 0.1354166
v -0.2429167 0.2745833 0.1354166
v -0.3229167 0.2745833 0.1354166
v -0.3229167 -0.2754166 0.1354166
v -0.2429167 -0.2754166 0.2154166
v -0.3229167 -0.2754166 0.2154166
v -0.3229167 0.2745833 0.2154166
v -0.2429167 0.2745833 0.2154166
v -0.2429166 -0.2754166 -0.2145833
v -0.2429166 -0.1954167 -0.2145833
v -0.3229167 -0.1954167 -0.2145833
v -0.3229167 -0.2754166 -0.2145833
v -0.2429166 -0.2754166 0.2154167
v -0.3229167 -0.2754166 0.2154167
v -0.3229167 -0.1954167 0.2154167
v -0.2429166 -0.1954167 0.2154167
v -0.3229167 -0.2754166 0.1354166
v -0.3229167 -0.1954167 0.1354166
v -0.3229167 -0.1954167 0.2154166
v -0.3229167 -0.2754166 0.2154166
v 0.3170834 -0.2754166 0.1354168
v 0.3170834 -0.2754166 0.2154168
v 0.3170834 -0.1954167 0.2154168
v 0.3170834 -0.1954167 0.1354168
vn -1 9.270361E-15 -3.400337E-07
vn 1 -9.270361E-15 3.400337E-07
vn 2.622683E-07 1.090105E-07 -1
vn -2.622683E-07 -1.090105E-07 1
vn 1.274843E-09 -1 1.192093E-07
vn -1.274843E-09 1 -1.192093E-07
vn 4.703179E-08 0 1
vn -4.703179E-08 0 -1
vn -1 8.958436E-09 0
vn 1 -8.958436E-09 0
vn 0 -1 -1.851558E-09
vn 0 1 1.851558E-09
vn 1.215085E-09 0 1
vn -1.215085E-09 0 -1
vn -1 7.776543E-08 0
vn 1 -7.776543E-08 0
vn 0 -1 -9.720679E-09
vn 0 1 9.720679E-09
vn 1.634989E-08 0 1
vn -1.634989E-08 0 -1
vn -1 1.440101E-09 0
vn 1 -1.440101E-09 0
vn 0 -1 -1.103617E-07
vn 0 1 1.103617E-07
vn -2.365559E-07 -1.110221E-16 1
vn 2.365559E-07 1.110221E-16 -1
vn -1 5.995118E-08 -1.788139E-07
vn 1 -5.995118E-08 1.788139E-07
vn 4.311797E-16 -1 5.779615E-08
vn -4.311797E-16 1 -5.779615E-08
vn -2.370639E-09 0 1
vn 2.370639E-09 0 -1
vn -1 1.413917E-09 0
vn 1 -1.413917E-09 0
vn 0 -1 1.629814E-08
vn 0 1 -1.629814E-08
vn -2.365559E-07 -1.110221E-16 1
vn 2.365559E-07 1.110221E-16 -1
vn -1 5.995118E-08 -1.788139E-07
vn 1 -5.995118E-08 1.788139E-07
vn 4.311797E-16 -1 5.779615E-08
vn -4.311797E-16 1 -5.779615E-08
vn 1.179132E-07 -7.725302E-17 -1
vn -1.179132E-07 7.725302E-17 1
vn 1 1.084991E-07 1.788139E-07
vn -1 -1.084991E-07 -1.788139E-07
vn -7.771561E-16 -1 6.61239E-08
vn 7.771561E-16 1 -6.61239E-08
vn 1.215799E-07 1.413011E-16 -1
vn -1.215799E-07 -1.413011E-16 1
vn 1 6.101856E-08 1.788139E-07
vn -1 -6.101856E-08 -1.788139E-07
vn 1.94289E-15 -1 4.33065E-08
vn -1.94289E-15 1 -4.33065E-08
vn 1.215799E-07 1.413011E-16 -1
vn -1.215799E-07 -1.413011E-16 1
vn 1 6.101856E-08 1.788139E-07
vn -1 -6.101856E-08 -1.788139E-07
vn 1.94289E-15 -1 4.33065E-08
vn -1.94289E-15 1 -4.33065E-08
vn -1.862642E-09 0 -1
vn 1.862642E-09 0 1
vn 1 3.465381E-10 0
vn -1 -3.465381E-10 0
vn 0 -1 1.808499E-09
vn 0 1 -1.808499E-09
vn -1 -9.270361E-15 -1.845029E-07
vn 1 9.270361E-15 1.845029E-07
vn 2.622683E-07 1.2893E-07 -1
vn -2.622683E-07 -1.2893E-07 1
vn 1.215085E-09 -1 1.192093E-07
vn -1.215085E-09 1 -1.192093E-07
vt -0.05696147 0.2259854
vt -0.06161138 0.2324953
vt -0.06812124 0.2278453
vt -0.06347133 0.2213355
vt 0.05696147 0.2259854
vt 0.06347133 0.2213355
vt 0.06812124 0.2278453
vt 0.06161138 0.2324953
vt -0.2213707 0.04248527
vt -0.1940907 0.09704535
vt -0.2012461 0.100623
vt -0.2285262 0.04606297
vt 0.2213707 0.04248526
vt 0.2285262 0.04606297
vt 0.2012461 0.100623
vt 0.1940907 0.09704535
vt -0.1005646 -0.02885768
vt -0.09303064 -0.03154838
vt -0.07251409 0.02589789
vt -0.08004803 0.02858859
vt 0.1005646 -0.02885768
vt 0.08004803 0.02858859
vt 0.07251409 0.02589789
vt 0.09303064 -0.03154838
vt 0.1976684 0.08988994
vt 0.2048238 0.09346765
vt 0.2012461 0.1006231
vt 0.1940907 0.09704536
vt -0.1976684 0.08988994
vt -0.1940907 0.09704536
vt -0.2012461 0.1006231
vt -0.2048238 0.09346765
vt -0.09113817 0.2015734
vt -0.05696137 0.2259854
vt -0.06161126 0.2324953
vt -0.09578807 0.2080833
vt 0.09113817 0.2015734
vt 0.09578807 0.2080833
vt 0.06161126 0.2324953
vt 0.05696137 0.2259854
vt -0.0431856 0.006928531
vt -0.0404949 0.01446247
vt -0.08004806 0.02858859
vt -0.08273875 0.02105466
vt 0.0431856 0.006928531
vt 0.08273875 0.02105466
vt 0.08004806 0.02858859
vt 0.0404949 0.01446247
vt 0.2227124 0.03980201
vt 0.2298678 0.04337971
vt 0.2012461 0.1006231
vt 0.1940907 0.09704535
vt -0.2227124 0.03980201
vt -0.1940907 0.09704535
vt -0.2012461 0.1006231
vt -0.2298678 0.04337971
vt -0.09195186 0.2009922
vt -0.08544199 0.2056421
vt -0.09009189 0.2121519
vt -0.09660176 0.207502
vt 0.09195186 0.2009922
vt 0.09660176 0.207502
vt 0.0900919 0.2121519
vt 0.08544199 0.2056421
vt -0.0610787 -0.04614535
vt -0.03955317 0.01412613
vt -0.0470871 0.01681682
vt -0.06861263 -0.04345466
vt 0.0610787 -0.04614535
vt 0.06861263 -0.04345466
vt 0.0470871 0.01681682
vt 0.03955317 0.01412613
vt 0.1565247 0.0693181
vt 0.2048238 0.09346764
vt 0.2012461 0.1006231
vt 0.152947 0.07647352
vt -0.1565247 0.0693181
vt -0.152947 0.07647352
vt -0.2012461 0.1006231
vt -0.2048238 0.09346764
vt -0.06521492 0.1635604
vt -0.05870505 0.1682103
vt -0.09009192 0.2121519
vt -0.09660179 0.207502
vt 0.06521492 0.1635604
vt 0.09660179 0.207502
vt 0.09009192 0.2121519
vt 0.05870505 0.1682103
vt -0.04224387 0.006592204
vt -0.03955318 0.01412614
vt -0.04708711 0.01681683
vt -0.0497778 0.009282894
vt 0.04224388 0.006592205
vt 0.04977781 0.009282896
vt 0.04708712 0.01681683
vt 0.03955318 0.01412614
vt 0.2227124 0.039802
vt 0.2298678 0.04337971
vt 0.2262901 0.05053512
vt 0.2191346 0.04695742
vt -0.2227124 0.039802
vt -0.2191347 0.04695741
vt -0.2262901 0.05053512
vt -0.2298678 0.0433797
vt -0.09195191 0.2009921
vt -0.05696138 0.2259854
vt -0.06161128 0.2324953
vt -0.09660181 0.207502
vt 0.09195191 0.2009921
vt 0.09660181 0.207502
vt 0.06161128 0.2324952
vt 0.05696138 0.2259854
vt -0.06107868 -0.04614536
vt -0.05838798 -0.03861143
vt -0.09888288 -0.02414896
vt -0.1015736 -0.03168289
vt 0.06107868 -0.04614536
vt 0.1015736 -0.03168289
vt 0.09888288 -0.02414896
vt 0.05838799 -0.03861142
vt 0.1556303 0.06887089
vt 0.2048238 0.09346764
vt 0.2012461 0.1006231
vt 0.1520526 0.07602631
vt -0.1556303 0.06887089
vt -0.1520526 0.07602631
vt -0.2012461 0.1006231
vt -0.2048238 0.09346764
vt -0.03615302 0.18309
vt -0.02964315 0.1877399
vt -0.06161125 0.2324953
vt -0.06812112 0.2278454
vt 0.03615302 0.18309
vt 0.06812112 0.2278454
vt 0.06161125 0.2324953
vt 0.02964315 0.1877399
vt -0.07520481 0.01836396
vt -0.07251412 0.0258979
vt -0.08004806 0.02858859
vt -0.08273875 0.02105466
vt 0.0752048 0.01836396
vt 0.08273875 0.02105466
vt 0.08004806 0.02858859
vt 0.07251412 0.0258979
vt 0.1556303 0.06887088
vt 0.1627857 0.07244858
vt 0.159208 0.079604
vt 0.1520526 0.0760263
vt -0.1556303 0.06887088
vt -0.1520526 0.0760263
vt -0.159208 0.079604
vt -0.1627857 0.07244858
vt -0.06463371 0.1627467
vt -0.02964318 0.1877399
vt -0.03429308 0.1942498
vt -0.06928361 0.1692565
vt 0.06463371 0.1627467
vt 0.06928361 0.1692565
vt 0.03429308 0.1942498
vt 0.02964318 0.1877399
vt -0.04224385 0.006592182
vt -0.03955315 0.01412611
vt -0.08004805 0.02858859
vt -0.08273874 0.02105465
vt 0.04224385 0.006592182
vt 0.08273874 0.02105466
vt 0.08004805 0.02858859
vt 0.03955316 0.01412612
vt -0.1520526 0.07602631
vt -0.159208 0.07960401
vt -0.1860408 0.02593839
vt -0.1788854 0.02236068
vt 0.1520526 0.07602631
vt 0.1788854 0.02236068
vt 0.1860408 0.02593839
vt 0.159208 0.07960401
vt 0.02964321 0.1877399
vt 0.03615309 0.18309
vt 0.04080299 0.1895999
vt 0.03429312 0.1942498
vt -0.02964322 0.1877399
vt -0.03429312 0.1942498
vt -0.04080299 0.1895999
vt -0.03615309 0.18309
vt -0.08004805 0.02858859
vt -0.1002283 -0.02791592
vt -0.09269431 -0.03060661
vt -0.07251412 0.0258979
vt 0.08004805 0.02858859
vt 0.07251412 0.0258979
vt 0.0926943 -0.03060661
vt 0.1002283 -0.02791592
vt -0.1770966 0.02593838
vt -0.2262901 0.05053512
vt -0.2298678 0.0433797
vt -0.1806743 0.01878295
vt 0.1770966 0.02593838
vt 0.1806743 0.01878295
vt 0.2298678 0.0433797
vt 0.2262901 0.05053512
vt 0.02964321 0.1877399
vt 0.03615308 0.18309
vt 0.06812119 0.2278453
vt 0.06161132 0.2324952
vt -0.02964322 0.1877399
vt -0.06161132 0.2324952
vt -0.06812119 0.2278453
vt -0.03615308 0.18309
vt -0.09888288 -0.02414896
vt -0.1015736 -0.0316829
vt -0.09403964 -0.03437359
vt -0.09134895 -0.02683965
vt 0.09888289 -0.02414896
vt 0.09134896 -0.02683965
vt 0.09403965 -0.03437359
vt 0.1015736 -0.0316829
vt -0.1770966 0.02593839
vt -0.2262901 0.05053513
vt -0.2298678 0.04337972
vt -0.1806743 0.01878297
vt 0.1770966 0.02593839
vt 0.1806743 0.01878297
vt 0.2298678 0.04337972
vt 0.2262901 0.05053513
vt 0.05812389 0.1673966
vt 0.06463375 0.1627467
vt 0.09660186 0.207502
vt 0.090092 0.2121519
vt -0.05812389 0.1673966
vt -0.090092 0.2121519
vt -0.09660186 0.207502
vt -0.06463375 0.1627467
vt -0.06592193 -0.03592073
vt -0.06861262 -0.04345467
vt -0.06107869 -0.04614536
vt -0.05838799 -0.03861142
vt 0.06592193 -0.03592073
vt 0.05838799 -0.03861142
vt 0.06107869 -0.04614536
vt 0.06861262 -0.04345467
vt -0.1770966 0.0259384
vt -0.184252 0.0295161
vt -0.1878297 0.02236068
vt -0.1806743 0.01878298
vt 0.1770966 0.0259384
vt 0.1806743 0.01878298
vt 0.1878297 0.02236068
vt 0.184252 0.0295161
vt 0.02964317 0.1877399
vt 0.0646337 0.1627467
vt 0.0692836 0.1692566
vt 0.03429307 0.1942498
vt -0.02964317 0.1877399
vt -0.03429307 0.1942498
vt -0.0692836 0.1692566
vt -0.0646337 0.1627467
vt -0.09888289 -0.02414895
vt -0.1015736 -0.03168289
vt -0.06107869 -0.04614536
vt -0.05838799 -0.03861142
vt 0.09888289 -0.02414895
vt 0.05838799 -0.03861142
vt 0.06107869 -0.04614536
vt 0.1015736 -0.03168289
vt -0.05812387 0.1673966
vt -0.06277378 0.1739064
vt -0.06928364 0.1692565
vt -0.06463374 0.1627467
vt 0.05812388 0.1673966
vt 0.06463374 0.1627467
vt 0.06928365 0.1692565
vt 0.06277378 0.1739064
vt -0.1806743 0.01878296
vt -0.1520526 0.07602631
vt -0.159208 0.07960402
vt -0.1878297 0.02236067
vt 0.1806743 0.01878296
vt 0.1878297 0.02236067
vt 0.159208 0.07960402
vt 0.1520526 0.07602631
vt -0.06861261 -0.04345467
vt -0.06107867 -0.04614536
vt -0.03955312 0.01412612
vt -0.04708705 0.01681682
vt 0.06861261 -0.04345467
vt 0.04708706 0.01681682
vt 0.03955312 0.01412612
vt 0.06107867 -0.04614536
o group601188153
g mesh601188153
usemtl mat21
f 4/4/1 3/3/1 2/2/1 1/1/1
f 8/8/2 7/7/2 6/6/2 5/5/2
f 2/12/3 8/11/3 5/10/3 1/9/3
f 6/16/4 7/15/4 3/14/4 4/13/4
f 5/20/5 6/19/5 4/18/5 1/17/5
f 3/24/6 7/23/6 8/22/6 2/21/6
o group1977489677
g mesh1977489677
usemtl mat21
f 12/28/7 11/27/7 10/26/7 9/25/7
f 16/32/8 15/31/8 14/30/8 13/29/8
f 10/36/9 16/35/9 13/34/9 9/33/9
f 14/40/10 15/39/10 11/38/10 12/37/10
f 13/44/11 14/43/11 12/42/11 9/41/11
f 11/48/12 15/47/12 16/46/12 10/45/12
o group1397262154
g mesh1397262154
usemtl mat21
f 20/52/13 19/51/13 18/50/13 17/49/13
f 24/56/14 23/55/14 22/54/14 21/53/14
f 18/60/15 24/59/15 21/58/15 17/57/15
f 22/64/16 23/63/16 19/62/16 20/61/16
f 21/68/17 22/67/17 20/66/17 17/65/17
f 19/72/18 23/71/18 24/70/18 18/69/18
o group1781151904
g mesh1781151904
usemtl mat21
f 28/76/19 27/75/19 26/74/19 25/73/19
f 32/80/20 31/79/20 30/78/20 29/77/20
f 26/84/21 32/83/21 29/82/21 25/81/21
f 30/88/22 31/87/22 27/86/22 28/85/22
f 29/92/23 30/91/23 28/90/23 25/89/23
f 27/96/24 31/95/24 32/94/24 26/93/24
o group414260999
g mesh414260999
usemtl mat21
f 36/100/25 35/99/25 34/98/25 33/97/25
f 40/104/26 39/103/26 38/102/26 37/101/26
f 34/108/27 40/107/27 37/106/27 33/105/27
f 38/112/28 39/111/28 35/110/28 36/109/28
f 37/116/29 38/115/29 36/114/29 33/113/29
f 35/120/30 39/119/30 40/118/30 34/117/30
o group53467455
g mesh53467455
usemtl mat21
f 44/124/31 43/123/31 42/122/31 41/121/31
f 48/128/32 47/127/32 46/126/32 45/125/32
f 42/132/33 48/131/33 45/130/33 41/129/33
f 46/136/34 47/135/34 43/134/34 44/133/34
f 45/140/35 46/139/35 44/138/35 41/137/35
f 43/144/36 47/143/36 48/142/36 42/141/36
o group1961200053
g mesh1961200053
usemtl mat21
f 52/148/37 51/147/37 50/146/37 49/145/37
f 56/152/38 55/151/38 54/150/38 53/149/38
f 50/156/39 56/155/39 53/154/39 49/153/39
f 54/160/40 55/159/40 51/158/40 52/157/40
f 53/164/41 54/163/41 52/162/41 49/161/41
f 51/168/42 55/167/42 56/166/42 50/165/42
o group1375006211
g mesh1375006211
usemtl mat21
f 60/172/43 59/171/43 58/170/43 57/169/43
f 64/176/44 63/175/44 62/174/44 61/173/44
f 58/180/45 64/179/45 61/178/45 57/177/45
f 62/184/46 63/183/46 59/182/46 60/181/46
f 61/188/47 62/187/47 60/186/47 57/185/47
f 59/192/48 63/191/48 64/190/48 58/189/48
o group624177613
g mesh624177613
usemtl mat21
f 68/196/49 67/195/49 66/194/49 65/193/49
f 72/200/50 71/199/50 70/198/50 69/197/50
f 66/204/51 72/203/51 69/202/51 65/201/51
f 70/208/52 71/207/52 67/206/52 68/205/52
f 69/212/53 70/211/53 68/210/53 65/209/53
f 67/216/54 71/215/54 72/214/54 66/213/54
o group125683366
g mesh125683366
usemtl mat21
f 76/220/55 75/219/55 74/218/55 73/217/55
f 80/224/56 79/223/56 78/222/56 77/221/56
f 74/228/57 80/227/57 77/226/57 73/225/57
f 78/232/58 79/231/58 75/230/58 76/229/58
f 77/236/59 78/235/59 76/234/59 73/233/59
f 75/240/60 79/239/60 80/238/60 74/237/60
o group1335366692
g mesh1335366692
usemtl mat21
f 84/244/61 83/243/61 82/242/61 81/241/61
f 88/248/62 87/247/62 86/246/62 85/245/62
f 82/252/63 88/251/63 85/250/63 81/249/63
f 86/256/64 87/255/64 83/254/64 84/253/64
f 85/260/65 86/259/65 84/258/65 81/257/65
f 83/264/66 87/263/66 88/262/66 82/261/66
o group600544593
g mesh600544593
usemtl mat21
f 92/268/67 91/267/67 90/266/67 89/265/67
f 96/272/68 95/271/68 94/270/68 93/269/68
f 90/276/69 96/275/69 93/274/69 89/273/69
f 94/280/70 95/279/70 91/278/70 92/277/70
f 93/284/71 94/283/71 92/282/71 89/281/71
f 91/288/72 95/287/72 96/286/72 90/285/72
